<svg id="Layer_1" data-name="Layer 1" xmlns="http://www.w3.org/2000/svg" viewBox="0 0 62.03 69.62"><defs><style>.cls-1{fill:#fff;}</style></defs><title>logo</title><path class="cls-1" d="M2287,651.62l-8.24-30.4a2,2,0,0,0-1.43-1.43l-30.4-8.24a2,2,0,0,0-1.77.35L2245,612l-0.11-.11-19.32,19.32h0l-0.12.13a2,2,0,0,0-.38,1.91l9.17,29.47a2,2,0,0,0,1.1,1.25l37.26,17a2,2,0,0,0,2.71-1.06h0l11.24-26.43,0,0A2,2,0,0,0,2287,651.62ZM2273.85,673l-5.35-18.78h13.34Zm8.49-22.85h-15l-3.57-12.52,11.9-12.06Zm-33.95,0V637.39l11.51,1.47,3.21,11.26H2248.4Zm24.31-27.36-12,12.11-12.36-1.57V616.17Zm-28.38,10-12.92-1.64,12.92-12.92v14.56Zm-14.4,2.27,14.4,1.83v15.27a2,2,0,0,0,0,.43l-6.86,6.86Zm10.85,26.89,7.75-7.75h15.75l6,21.2Z" transform="translate(-2225.01 -611.48)"/></svg>